<svg width="192" height="192" viewBox="0 0 192 192" fill="none" xmlns="http://www.w3.org/2000/svg">
<path d="M153.84 122.08L133.52 119.76C128.64 119.2 123.84 120.88 120.4 124.32L105.68 139.04C83.04 127.52 64.48 109.04 52.96 86.32L67.76 71.52C71.2 68.08 72.88 63.28 72.32 58.4L70 38.24C69.04 30.16 62.24 24.08 54.08 24.08H40.24C31.2 24.08 23.68 31.6 24.24 40.64C28.48 108.96 83.12 163.52 151.36 167.76C160.4 168.32 167.92 160.8 167.92 151.76V137.92C168 129.84 161.92 123.04 153.84 122.08Z" fill="#060B18"/>
</svg>
