<svg width="170" height="170" viewBox="0 0 170 170" fill="none" xmlns="http://www.w3.org/2000/svg">
<path d="M141.667 28.3334H28.3333C20.5416 28.3334 14.2375 34.7084 14.2375 42.5L14.1666 127.5C14.1666 135.292 20.5416 141.667 28.3333 141.667H141.667C149.458 141.667 155.833 135.292 155.833 127.5V42.5C155.833 34.7084 149.458 28.3334 141.667 28.3334ZM138.833 58.4375L88.7541 89.7459C86.4875 91.1625 83.5125 91.1625 81.2458 89.7459L31.1666 58.4375C29.3958 57.3042 28.3333 55.3917 28.3333 53.3375C28.3333 48.5917 33.5041 45.7584 37.5416 48.2375L85 77.9167L132.458 48.2375C136.496 45.7584 141.667 48.5917 141.667 53.3375C141.667 55.3917 140.604 57.3042 138.833 58.4375Z" fill="#060B18"/>
</svg>
