<svg width="145" height="129" viewBox="0 0 145 129" fill="none" xmlns="http://www.w3.org/2000/svg">
<rect x="1.5" y="39.5" width="142" height="88" rx="6.5" fill="#060B18" stroke="#060B18" stroke-width="3"/>
<rect x="16.5" y="98.5" width="79" height="26" rx="6.5" transform="rotate(-90 16.5 98.5)" fill="#060B18" stroke="#F8F9FA" stroke-width="3"/>
<rect x="55.5" y="1.5" width="73" height="56" fill="#060B18" stroke="#F8F9FA" stroke-width="3"/>
<rect x="55.5" y="69.5" width="73" height="14" rx="1.5" stroke="#F8F9FA" stroke-width="3"/>
<rect x="55.5" y="94.5" width="9" height="9" rx="1.5" stroke="#F8F9FA" stroke-width="3"/>
<rect x="55.5" y="110.5" width="9" height="9" rx="1.5" stroke="#F8F9FA" stroke-width="3"/>
<rect x="77.5" y="94.5" width="9" height="9" rx="1.5" stroke="#F8F9FA" stroke-width="3"/>
<rect x="77.5" y="110.5" width="9" height="9" rx="1.5" stroke="#F8F9FA" stroke-width="3"/>
<rect x="98.5" y="94.5" width="9" height="9" rx="1.5" stroke="#F8F9FA" stroke-width="3"/>
<rect x="98.5" y="110.5" width="9" height="9" rx="1.5" stroke="#F8F9FA" stroke-width="3"/>
<rect x="120.5" y="94.5" width="9" height="9" rx="1.5" stroke="#F8F9FA" stroke-width="3"/>
<rect x="120.5" y="110.5" width="9" height="9" rx="1.5" stroke="#F8F9FA" stroke-width="3"/>
</svg>
