<svg width="32" height="32" viewBox="0 0 32 32" fill="none" xmlns="http://www.w3.org/2000/svg">
<circle cx="16" cy="16" r="16" fill="#C4C4C4" fill-opacity="0.48"/>
<circle cx="16" cy="16" r="16" stroke="black"/>
<path d="M24.6291 11.8844C24.5272 11.5207 24.3286 11.1915 24.0545 10.9317C23.7726 10.6639 23.4272 10.4723 23.0508 10.375C21.642 10.0037 15.9978 10.0037 15.9978 10.0037C13.6448 9.97695 11.2924 10.0947 8.95387 10.3563C8.57743 10.4607 8.23264 10.6566 7.95016 10.9264C7.6726 11.1935 7.47156 11.5228 7.36654 11.8836C7.11426 13.2427 6.99168 14.6227 7.00046 16.005C6.99146 17.386 7.11374 18.7655 7.36654 20.1263C7.46931 20.4856 7.6696 20.8135 7.94791 21.0783C8.22622 21.3431 8.57279 21.5344 8.95387 21.6356C10.3814 22.0062 15.9978 22.0062 15.9978 22.0062C18.3538 22.033 20.7092 21.9153 23.0508 21.6536C23.4272 21.5564 23.7726 21.3648 24.0545 21.097C24.3285 20.8373 24.5268 20.508 24.6284 20.1443C24.8872 18.7858 25.0131 17.4052 25.0042 16.0222C25.0237 14.6334 24.8979 13.2463 24.6291 11.8836V11.8844ZM14.2035 18.5735V13.4372L18.8994 16.0057L14.2035 18.5735Z" fill="#F8F9FA"/>
</svg>
