<svg width="32" height="32" viewBox="0 0 32 32" fill="none" xmlns="http://www.w3.org/2000/svg">
<circle cx="16" cy="16" r="16" fill="#C4C4C4" fill-opacity="0.48"/>
<circle cx="16" cy="16" r="16" stroke="black"/>
<path d="M13.7119 23C19.3725 23 22.4691 17.9973 22.4691 13.6665C22.4691 13.5265 22.4691 13.3845 22.4634 13.2445C23.0663 12.779 23.5866 12.2027 24 11.5426C23.4369 11.8074 22.8401 11.982 22.2291 12.0606C22.8727 11.6502 23.3547 11.0046 23.5856 10.2437C22.9809 10.6258 22.3191 10.894 21.6291 11.0366C21.1652 10.5097 20.5513 10.1606 19.8826 10.0434C19.2138 9.92629 18.5276 10.0476 17.93 10.3886C17.3325 10.7296 16.857 11.2713 16.5773 11.9297C16.2976 12.588 16.2292 13.3264 16.3828 14.0305C15.1591 13.965 13.962 13.626 12.8691 13.0353C11.7762 12.4446 10.8119 11.6155 10.0388 10.6017C9.64626 11.3247 9.52648 12.18 9.70373 12.9938C9.88099 13.8076 10.342 14.519 10.9931 14.9834C10.5052 14.9657 10.028 14.826 9.6 14.5754V14.6204C9.60084 15.3779 9.84685 16.1118 10.2964 16.6981C10.746 17.2844 11.3716 17.6872 12.0675 17.8383C11.8034 17.9159 11.5305 17.9546 11.2566 17.9533C11.0634 17.9539 10.8707 17.9348 10.6809 17.8963C10.8776 18.5483 11.2606 19.1184 11.7762 19.5267C12.2918 19.935 12.9142 20.161 13.5563 20.1732C12.4655 21.0869 11.1182 21.5825 9.73125 21.5801C9.48686 21.5812 9.24265 21.5661 9 21.5351C10.4077 22.4923 12.0425 23.0005 13.7119 23Z" fill="#F8F9FA"/>
</svg>
