<svg width="32" height="32" viewBox="0 0 32 32" fill="none" xmlns="http://www.w3.org/2000/svg">
<circle cx="16" cy="16" r="16" fill="#C4C4C4" fill-opacity="0.48"/>
<circle cx="16" cy="16" r="16" stroke="black"/>
<path d="M22.1687 9H8.83125C8.61129 9.00164 8.40081 9.08974 8.24527 9.24527C8.08974 9.40081 8.00164 9.61129 8 9.83125V23.1687C8.00164 23.3887 8.08974 23.5992 8.24527 23.7547C8.40081 23.9103 8.61129 23.9984 8.83125 24H16.0125V18.2H14.0625V15.9313H16.0125V14.2625C16.0125 12.325 17.1937 11.2688 18.9312 11.2688C19.5125 11.2688 20.0938 11.2687 20.675 11.3563V13.375H19.4813C18.5375 13.375 18.3562 13.825 18.3562 14.4813V15.925H20.6062L20.3125 18.1937H18.3562V24H22.1687C22.3887 23.9984 22.5992 23.9103 22.7547 23.7547C22.9103 23.5992 22.9984 23.3887 23 23.1687V9.83125C22.9984 9.61129 22.9103 9.40081 22.7547 9.24527C22.5992 9.08974 22.3887 9.00164 22.1687 9Z" fill="#F8F9FA"/>
</svg>
