<svg width="1101" height="629" viewBox="0 0 1101 629" fill="none" xmlns="http://www.w3.org/2000/svg">
<path fill-rule="evenodd" clip-rule="evenodd" d="M993.004 431.169L990.194 431.169L988.694 431.92L983.543 431.92L976.501 429.572L976.501 431.124L972.001 430.374L972.001 441.716L976.501 440.966L976.501 442.518L983.543 440.171L988.694 440.171L990.194 440.921L993.004 440.921L993.004 431.169Z" fill="#DD4B4E"/>
<path fill-rule="evenodd" clip-rule="evenodd" d="M993.004 398.605L990.194 398.605L988.694 399.355L983.543 399.355L976.501 397.008L976.501 398.56L972.001 397.81L972.001 409.152L976.501 408.402L976.501 409.954L983.543 407.607L988.694 407.607L990.194 408.357L993.004 408.357L993.004 398.605Z" fill="#DD4B4E"/>
<path d="M1081.98 411.61C1091.4 411.802 1098.1 417.286 1100.27 420.005L983.753 420.005L983.753 411.61C1012.57 411.53 1072.56 411.418 1081.98 411.61Z" fill="#3A3B55"/>
<path d="M1081.98 428.4C1091.4 428.208 1098.1 422.723 1100.27 420.005L983.753 420.005L983.753 428.4C1012.57 428.48 1072.56 428.592 1081.98 428.4Z" fill="#3A3B55"/>
<path d="M1064.14 430.095C1071.42 430.242 1076.59 434.437 1078.27 436.515L988.256 436.515L988.256 430.095C1010.52 430.034 1056.86 429.949 1064.14 430.095Z" fill="#3A3B55"/>
<path d="M1064.14 442.935C1071.42 442.788 1076.59 438.594 1078.27 436.515L988.256 436.515L988.256 442.935C1010.52 442.996 1056.86 443.082 1064.14 442.935Z" fill="#3A3B55"/>
<path d="M1064.14 397.089C1071.42 397.236 1076.59 401.43 1078.27 403.509L988.256 403.509L988.256 397.089C1010.52 397.028 1056.86 396.942 1064.14 397.089Z" fill="#3A3B55"/>
<path d="M1064.14 409.929C1071.42 409.782 1076.59 405.588 1078.27 403.509L988.256 403.509L988.256 409.929C1010.52 409.99 1056.86 410.076 1064.14 409.929Z" fill="#3A3B55"/>
<path d="M1024.51 411.753C1052.91 411.553 1061.18 417.004 1061.77 419.754C1061.18 422.504 1052.91 427.955 1024.51 427.755L1023.01 429.005C1019.09 429.005 1010.16 430.605 1005.76 437.006C1000.26 445.007 996.506 448.508 990.505 448.508L988.005 448.508L984.504 430.005L983.254 427.755L980.754 427.755L980.754 423.504L979.254 423.504L979.254 419.754L979.254 416.003L980.754 416.003L980.754 411.753L983.254 411.753L984.504 409.503L988.005 391L990.505 391C996.506 391 1000.26 394.5 1005.76 402.502C1010.16 408.902 1019.09 410.503 1023.01 410.503L1024.51 411.753Z" fill="#F8F9FA"/>
<line x1="1.5" y1="2.5" x2="1.50002" y2="418.5" stroke="#9EB9C4" stroke-width="3" stroke-linecap="round" stroke-dasharray="9 9"/>
<line x1="968.5" y1="2.5" x2="11.5" y2="2.5" stroke="#9EB9C4" stroke-width="3" stroke-linecap="round" stroke-dasharray="9 9"/>
<line x1="973.495" y1="1.50477" x2="971.505" y2="626.505" stroke="#9EB9C4" stroke-width="3" stroke-linecap="round" stroke-dasharray="9 9"/>
<line x1="970.5" y1="420.5" x2="10.5" y2="420.5" stroke="#9EB9C4" stroke-width="3" stroke-linecap="round" stroke-dasharray="9 9"/>
</svg>
