<svg width="79" height="64" viewBox="0 0 79 64" fill="none" xmlns="http://www.w3.org/2000/svg">
<path d="M36.7197 63.3976C54.5718 63.3976 69.0438 49.2056 69.0438 31.6988C69.0438 14.192 54.5718 0 36.7197 0C18.8676 0 4.39563 14.192 4.39563 31.6988C4.39563 49.2056 18.8676 63.3976 36.7197 63.3976Z" fill="#0B3D91"/>
<path d="M34.8092 6.44511C35.0093 6.44511 35.1715 6.28601 35.1715 6.08974C35.1715 5.89348 35.0093 5.73438 34.8092 5.73438C34.609 5.73438 34.4468 5.89348 34.4468 6.08974C34.4468 6.28601 34.609 6.44511 34.8092 6.44511Z" fill="#F8F9FA"/>
<path d="M38.5355 6.91825C38.7356 6.91825 38.8978 6.75915 38.8978 6.56289C38.8978 6.36662 38.7356 6.20752 38.5355 6.20752C38.3353 6.20752 38.1731 6.36662 38.1731 6.56289C38.1731 6.75915 38.3353 6.91825 38.5355 6.91825Z" fill="#F8F9FA"/>
<path d="M43.411 13.3626C43.6111 13.3626 43.7733 13.2035 43.7733 13.0072C43.7733 12.811 43.6111 12.6519 43.411 12.6519C43.2108 12.6519 43.0486 12.811 43.0486 13.0072C43.0486 13.2035 43.2108 13.3626 43.411 13.3626Z" fill="#F8F9FA"/>
<path d="M16.6425 46.531C16.8427 46.531 17.0049 46.3719 17.0049 46.1757C17.0049 45.9794 16.8427 45.8203 16.6425 45.8203C16.4424 45.8203 16.2802 45.9794 16.2802 46.1757C16.2802 46.3719 16.4424 46.531 16.6425 46.531Z" fill="#F8F9FA"/>
<path d="M17.5915 49.3728C17.7916 49.3728 17.9539 49.2137 17.9539 49.0175C17.9539 48.8212 17.7916 48.6621 17.5915 48.6621C17.3914 48.6621 17.2291 48.8212 17.2291 49.0175C17.2291 49.2137 17.3914 49.3728 17.5915 49.3728Z" fill="#F8F9FA"/>
<path d="M13.0941 46.8687C13.244 46.8687 13.3655 46.7495 13.3655 46.6026C13.3655 46.4556 13.244 46.3364 13.0941 46.3364C12.9442 46.3364 12.8227 46.4556 12.8227 46.6026C12.8227 46.7495 12.9442 46.8687 13.0941 46.8687Z" fill="#F8F9FA"/>
<path d="M27.8325 52.4538C27.9829 52.4538 28.1047 52.3343 28.1047 52.1868C28.1047 52.0394 27.9829 51.9199 27.8325 51.9199C27.6822 51.9199 27.5604 52.0394 27.5604 52.1868C27.5604 52.3343 27.6822 52.4538 27.8325 52.4538Z" fill="#F8F9FA"/>
<path d="M50.9448 47.7452C51.0947 47.7452 51.2162 47.626 51.2162 47.479C51.2162 47.332 51.0947 47.2129 50.9448 47.2129C50.7949 47.2129 50.6734 47.332 50.6734 47.479C50.6734 47.626 50.7949 47.7452 50.9448 47.7452Z" fill="#F8F9FA"/>
<path d="M57.6632 40.59C57.8136 40.59 57.9354 40.4705 57.9354 40.3231C57.9354 40.1757 57.8136 40.0562 57.6632 40.0562C57.5129 40.0562 57.3911 40.1757 57.3911 40.3231C57.3911 40.4705 57.5129 40.59 57.6632 40.59Z" fill="#F8F9FA"/>
<path d="M24.7396 15.3516C24.8895 15.3516 25.011 15.2324 25.011 15.0855C25.011 14.9385 24.8895 14.8193 24.7396 14.8193C24.5897 14.8193 24.4682 14.9385 24.4682 15.0855C24.4682 15.2324 24.5897 15.3516 24.7396 15.3516Z" fill="#F8F9FA"/>
<path d="M32.1311 10.0279C32.281 10.0279 32.4025 9.90872 32.4025 9.76174C32.4025 9.61476 32.281 9.49561 32.1311 9.49561C31.9812 9.49561 31.8597 9.61476 31.8597 9.76174C31.8597 9.90872 31.9812 10.0279 32.1311 10.0279Z" fill="#F8F9FA"/>
<path d="M31.3316 9.50589C31.4815 9.50589 31.603 9.38674 31.603 9.23976C31.603 9.09278 31.4815 8.97363 31.3316 8.97363C31.1817 8.97363 31.0602 9.09278 31.0602 9.23976C31.0602 9.38674 31.1817 9.50589 31.3316 9.50589Z" fill="#F8F9FA"/>
<path d="M30.6031 8.98636C30.753 8.98636 30.8745 8.86721 30.8745 8.72023C30.8745 8.57325 30.753 8.4541 30.6031 8.4541C30.4532 8.4541 30.3317 8.57325 30.3317 8.72023C30.3317 8.86721 30.4532 8.98636 30.6031 8.98636Z" fill="#F8F9FA"/>
<path d="M25.8952 16.7266C26.0451 16.7266 26.1666 16.6074 26.1666 16.4605C26.1666 16.3135 26.0451 16.1943 25.8952 16.1943C25.7453 16.1943 25.6238 16.3135 25.6238 16.4605C25.6238 16.6074 25.7453 16.7266 25.8952 16.7266Z" fill="#F8F9FA"/>
<path d="M36.7867 2.87308C36.9366 2.87308 37.0581 2.75393 37.0581 2.60695C37.0581 2.45997 36.9366 2.34082 36.7867 2.34082C36.6368 2.34082 36.5153 2.45997 36.5153 2.60695C36.5153 2.75393 36.6368 2.87308 36.7867 2.87308Z" fill="#F8F9FA"/>
<path d="M38.5772 10.5503C38.727 10.5503 38.8485 10.4312 38.8485 10.2842C38.8485 10.1372 38.727 10.0181 38.5772 10.0181C38.4273 10.0181 38.3058 10.1372 38.3058 10.2842C38.3058 10.4312 38.4273 10.5503 38.5772 10.5503Z" fill="#F8F9FA"/>
<path d="M35.7539 9.05033C35.9038 9.05033 36.0253 8.93118 36.0253 8.7842C36.0253 8.63722 35.9038 8.51807 35.7539 8.51807C35.604 8.51807 35.4825 8.63722 35.4825 8.7842C35.4825 8.93118 35.604 9.05033 35.7539 9.05033Z" fill="#F8F9FA"/>
<path d="M30.9236 11.0884C31.0735 11.0884 31.195 10.9693 31.195 10.8223C31.195 10.6753 31.0735 10.5562 30.9236 10.5562C30.7737 10.5562 30.6522 10.6753 30.6522 10.8223C30.6522 10.9693 30.7737 11.0884 30.9236 11.0884Z" fill="#F8F9FA"/>
<path d="M52.2331 54.774C52.383 54.774 52.5045 54.6548 52.5045 54.5078C52.5045 54.3609 52.383 54.2417 52.2331 54.2417C52.0832 54.2417 51.9617 54.3609 51.9617 54.5078C51.9617 54.6548 52.0832 54.774 52.2331 54.774Z" fill="#F8F9FA"/>
<path d="M16.187 48.2433C16.3374 48.2433 16.4592 48.1238 16.4592 47.9764C16.4592 47.829 16.3374 47.7095 16.187 47.7095C16.0367 47.7095 15.9149 47.829 15.9149 47.9764C15.9149 48.1238 16.0367 48.2433 16.187 48.2433Z" fill="#F8F9FA"/>
<path d="M35.0815 51.6784C35.2318 51.6784 35.3536 51.5589 35.3536 51.4114C35.3536 51.264 35.2318 51.1445 35.0815 51.1445C34.9311 51.1445 34.8093 51.264 34.8093 51.4114C34.8093 51.5589 34.9311 51.6784 35.0815 51.6784Z" fill="#F8F9FA"/>
<path d="M21.8072 48.0285C21.9575 48.0285 22.0793 47.909 22.0793 47.7615C22.0793 47.6141 21.9575 47.4946 21.8072 47.4946C21.6568 47.4946 21.535 47.6141 21.535 47.7615C21.535 47.909 21.6568 48.0285 21.8072 48.0285Z" fill="#F8F9FA"/>
<path d="M24.1579 51.7897C24.3082 51.7897 24.4301 51.6702 24.4301 51.5228C24.4301 51.3754 24.3082 51.2559 24.1579 51.2559C24.0075 51.2559 23.8857 51.3754 23.8857 51.5228C23.8857 51.6702 24.0075 51.7897 24.1579 51.7897Z" fill="#F8F9FA"/>
<path d="M41.4555 49.4209C41.6054 49.4209 41.7269 49.3018 41.7269 49.1548C41.7269 49.0078 41.6054 48.8887 41.4555 48.8887C41.3056 48.8887 41.1841 49.0078 41.1841 49.1548C41.1841 49.3018 41.3056 49.4209 41.4555 49.4209Z" fill="#F8F9FA"/>
<path d="M50.9932 44.1431C51.1431 44.1431 51.2646 44.024 51.2646 43.877C51.2646 43.73 51.1431 43.6108 50.9932 43.6108C50.8434 43.6108 50.7219 43.73 50.7219 43.877C50.7219 44.024 50.8434 44.1431 50.9932 44.1431Z" fill="#F8F9FA"/>
<path d="M58.2195 47.3833C58.3694 47.3833 58.4909 47.2642 58.4909 47.1172C58.4909 46.9702 58.3694 46.8511 58.2195 46.8511C58.0696 46.8511 57.9481 46.9702 57.9481 47.1172C57.9481 47.2642 58.0696 47.3833 58.2195 47.3833Z" fill="#F8F9FA"/>
<path d="M60.6901 48.9287C60.84 48.9287 60.9615 48.8096 60.9615 48.6626C60.9615 48.5156 60.84 48.3965 60.6901 48.3965C60.5402 48.3965 60.4187 48.5156 60.4187 48.6626C60.4187 48.8096 60.5402 48.9287 60.6901 48.9287Z" fill="#F8F9FA"/>
<path d="M61.0914 44.7124C61.2413 44.7124 61.3628 44.5933 61.3628 44.4463C61.3628 44.2993 61.2413 44.1802 61.0914 44.1802C60.9416 44.1802 60.8201 44.2993 60.8201 44.4463C60.8201 44.5933 60.9416 44.7124 61.0914 44.7124Z" fill="#F8F9FA"/>
<path d="M25.1412 38.7408C25.2911 38.7408 25.4126 38.6216 25.4126 38.4746C25.4126 38.3276 25.2911 38.2085 25.1412 38.2085C24.9913 38.2085 24.8698 38.3276 24.8698 38.4746C24.8698 38.6216 24.9913 38.7408 25.1412 38.7408Z" fill="#F8F9FA"/>
<path d="M25.245 44.9432C25.4451 44.9432 25.6074 44.7841 25.6074 44.5878C25.6074 44.3915 25.4451 44.2324 25.245 44.2324C25.0449 44.2324 24.8826 44.3915 24.8826 44.5878C24.8826 44.7841 25.0449 44.9432 25.245 44.9432Z" fill="#F8F9FA"/>
<path d="M27.4205 49.4427C27.6207 49.4427 27.7829 49.2836 27.7829 49.0873C27.7829 48.891 27.6207 48.7319 27.4205 48.7319C27.2204 48.7319 27.0582 48.891 27.0582 49.0873C27.0582 49.2836 27.2204 49.4427 27.4205 49.4427Z" fill="#F8F9FA"/>
<path d="M53.4639 44.7532C53.664 44.7532 53.8263 44.5941 53.8263 44.3978C53.8263 44.2016 53.664 44.0425 53.4639 44.0425C53.2637 44.0425 53.1015 44.2016 53.1015 44.3978C53.1015 44.5941 53.2637 44.7532 53.4639 44.7532Z" fill="#F8F9FA"/>
<path d="M62.8338 44.2312C63.0339 44.2312 63.1961 44.0721 63.1961 43.8759C63.1961 43.6796 63.0339 43.5205 62.8338 43.5205C62.6336 43.5205 62.4714 43.6796 62.4714 43.8759C62.4714 44.0721 62.6336 44.2312 62.8338 44.2312Z" fill="#F8F9FA"/>
<path d="M58.2005 42.2889C58.4006 42.2889 58.5629 42.1298 58.5629 41.9335C58.5629 41.7372 58.4006 41.5781 58.2005 41.5781C58.0004 41.5781 57.8381 41.7372 57.8381 41.9335C57.8381 42.1298 58.0004 42.2889 58.2005 42.2889Z" fill="#F8F9FA"/>
<path d="M53.4639 42.4798C53.6641 42.4798 53.8263 42.3207 53.8263 42.1244C53.8263 41.9281 53.6641 41.769 53.4639 41.769C53.2638 41.769 53.1016 41.9281 53.1016 42.1244C53.1016 42.3207 53.2638 42.4798 53.4639 42.4798Z" fill="#F8F9FA"/>
<path d="M43.6981 5.86503L44.5992 5.78054L43.6997 5.73078C43.6715 5.56021 43.5322 5.42675 43.3567 5.40464L43.2705 4.5249L43.219 5.41174C43.0563 5.44728 42.9315 5.58074 42.9114 5.74658L41.9901 5.82871L42.9178 5.87767C42.9516 6.03008 43.0772 6.14933 43.2351 6.17776L43.3188 7.08434L43.368 6.17934C43.5346 6.1517 43.6667 6.02613 43.6981 5.86503Z" fill="#F8F9FA"/>
<path d="M28.4882 15.7059L29.3893 15.6214L28.4898 15.5716C28.4624 15.401 28.3223 15.2676 28.1467 15.2455L28.0606 14.3657L28.0098 15.2526C27.8463 15.2881 27.7215 15.4216 27.7014 15.5874L26.7802 15.6695L27.7078 15.7185C27.7417 15.8709 27.8673 15.9902 28.0251 16.0186L28.1089 16.9252L28.1588 16.0202C28.3255 15.9933 28.4576 15.867 28.4882 15.7059Z" fill="#F8F9FA"/>
<path d="M62.1741 41.7171L63.0752 41.6326L62.1757 41.5828C62.1484 41.4123 62.0082 41.2788 61.8327 41.2567L61.7465 40.377L61.6958 41.2638C61.5331 41.2993 61.4083 41.4328 61.3882 41.5986L60.4669 41.6808L61.3946 41.7297C61.4284 41.8821 61.5541 42.0014 61.7119 42.0298L61.7956 42.9364L61.8456 42.0314C62.0106 42.0045 62.1427 41.879 62.1741 41.7171Z" fill="#F8F9FA"/>
<path d="M25.4449 55.3164L26.346 55.2319L25.4465 55.1821C25.4183 55.0116 25.279 54.8781 25.1034 54.856L25.0173 53.9771L24.9665 54.8631C24.8031 54.8986 24.6783 55.0321 24.6581 55.1979L23.7369 55.2801L24.6646 55.329C24.6984 55.4814 24.824 55.6015 24.9818 55.6291L25.0656 56.5357L25.1155 55.6307C25.2814 55.6038 25.4143 55.4775 25.4449 55.3164Z" fill="#F8F9FA"/>
<path d="M59.3155 48.6844L60.2166 48.5999L59.3171 48.5501C59.2897 48.3795 59.1496 48.2461 58.974 48.224L58.8879 47.3442L58.8371 48.2303C58.6745 48.2658 58.5497 48.3993 58.5295 48.5651L57.6083 48.6473L58.536 48.6962C58.5698 48.8486 58.6954 48.9679 58.8532 48.9963L58.937 49.9029L58.9869 48.9979C59.152 48.9718 59.2849 48.8455 59.3155 48.6844Z" fill="#F8F9FA"/>
<path d="M44.3873 24.1055C40.629 25.538 36.9634 26.8166 33.8703 27.7658C27.585 29.6958 10.3882 34.9205 0 41.5067L0.869707 41.8384C7.19924 38.3321 11.3134 37.2304 15.2682 36.0103C19.5684 34.6836 33.47 31.4932 39.7649 29.7558C41.8917 29.1691 44.3824 28.4007 47.0205 27.4657C46.4069 26.6262 45.7595 25.7844 45.0782 24.9442C44.8503 24.6607 44.6192 24.3811 44.3873 24.1055ZM48.979 30.3118C48.069 30.9143 47.3064 31.3953 46.7725 31.6985C43.6802 33.4517 28.6045 43.5441 25.1748 45.8659C21.7451 48.1876 12.2258 57.0007 9.42344 59.5594L9.3268 60.601C18.3621 52.6407 21.1967 50.6775 24.7883 47.9981C29.2334 44.6813 38.429 38.5453 41.5543 36.5789C44.5419 34.6994 47.2364 32.9707 49.6546 31.389C49.6152 31.3242 49.5757 31.2594 49.5363 31.1939C49.3543 30.9009 49.1682 30.6072 48.979 30.3118ZM63.1029 15.6833C58.7012 18.2135 51.7637 21.2673 45.0331 23.8583C45.1942 24.0518 45.3544 24.2469 45.5139 24.4435C46.266 25.3722 46.9755 26.3072 47.643 27.243C52.9338 25.3319 58.739 22.7669 63.3453 19.6626C61.1509 21.7016 53.8961 27.0187 49.4726 29.9825C49.7005 30.3465 49.9212 30.7106 50.1346 31.0731C56.8362 26.6752 61.3458 23.4382 63.9734 21.2736C67.5972 18.2885 75.8594 11.6076 79 2.65234C73.4911 9.52358 66.9779 13.4555 63.1029 15.6833Z" fill="#DD4B4E"/>
<path d="M32.557 39.5467C31.8443 38.667 30.8586 37.4888 30.1186 36.5751C29.1289 35.3534 28.2133 34.1191 27.3742 32.8864C27.1004 32.9535 26.8274 33.0206 26.5544 33.0877C27.5674 34.6379 28.6924 36.1858 29.9181 37.6988C30.8135 38.8044 31.6277 39.6944 32.0448 40.248C32.1294 40.3601 32.2969 40.6081 32.5232 40.9382C32.7841 40.7645 33.0474 40.5892 33.3131 40.4123C33.0563 40.1382 32.8026 39.85 32.557 39.5467ZM37.7591 44.1776C37.1737 43.6343 35.754 42.7269 34.2763 41.3654C33.9501 41.585 33.6208 41.8077 33.2906 42.032C34.2448 43.3508 35.5446 44.9705 36.5625 45.4427C38.0957 46.155 38.5088 44.8741 37.7591 44.1776ZM45.5084 24.4428C37.0593 14.014 26.738 8.28466 22.288 11.7523C18.8317 14.4452 20.2506 22.3154 25.0147 30.5828C25.2611 30.4999 25.5051 30.4185 25.7467 30.338C20.9383 22.283 19.6225 14.7974 22.8823 12.2569C26.9788 9.06489 36.8701 14.8163 45.0743 24.9427C46.7727 27.0386 48.2657 29.1424 49.5299 31.1932C54.3713 39.0508 55.8571 46.1566 52.5119 49.0572C51.4884 49.9448 48.3607 50.2931 44.2634 48.4846C44.2062 48.5549 44.298 48.7453 44.3697 48.7918C47.9065 50.1865 51.2943 50.7179 53.0048 49.3857C57.1149 46.1827 53.9574 34.8717 45.5084 24.4428Z" fill="#F8F9FA"/>
<path d="M9.27338 25.6816H14.6849L19.2267 33.2391C19.2267 33.2391 19.2267 27.7665 19.2267 27.34C19.2267 26.6767 18.3691 25.8119 18.0671 25.6816C18.4295 25.6816 21.5942 25.6816 21.8117 25.6816C21.5821 25.7409 20.8453 26.6174 20.8453 27.34C20.8453 27.6954 20.8453 35.6319 20.8453 36.011C20.8453 36.544 21.6305 37.2785 22.0049 37.5628H16.7867L12.1724 29.9697C12.1724 29.9697 12.1724 35.6319 12.1724 35.9399C12.1724 36.5322 12.7643 37.1008 13.3803 37.5865H9.39417C9.96189 37.3495 10.5055 36.6033 10.5538 36.011C10.6021 35.4187 10.5538 27.7783 10.5538 27.4466C10.5538 26.7241 9.8411 26.1318 9.27338 25.6816Z" fill="#F8F9FA"/>
<path d="M58.7751 37.5628H65.9743C65.5757 37.468 65.1287 37.006 64.8872 36.3901C64.6456 35.7741 60.8285 25.6816 60.8285 25.6816H58.0914C57.3151 26.2297 56.4832 26.8078 55.595 27.4166C55.5926 27.4387 55.5901 27.4608 55.5861 27.4822C55.4669 28.1929 53.3249 35.8009 53.1944 36.1768C53.0132 36.698 52.0831 37.2785 51.7087 37.5865H55.5861C55.1996 37.16 54.8855 36.7454 54.958 36.2716C55.0305 35.7978 55.2479 34.8501 55.2479 34.8501H59.2582C59.4394 35.324 59.5747 35.7496 59.6448 36.1531C59.7293 36.6388 59.222 37.1837 58.7751 37.5628ZM55.6103 33.3339L56.9632 28.9984L58.7509 33.3339H55.6103ZM55.0007 26.1144C55.1996 25.9707 55.3993 25.8262 55.5982 25.6816H54.5473C54.652 25.7764 54.8251 25.9257 55.0007 26.1144Z" fill="#F8F9FA"/>
<path d="M27.464 36.2716C27.5365 35.7978 27.7539 34.8501 27.7539 34.8501H31.7642C31.9454 35.324 32.0807 35.7496 32.1507 36.1531C32.2353 36.6388 31.728 37.1837 31.281 37.5628H37.6194C37.7515 37.4759 37.8828 37.389 38.014 37.303C37.7684 37.0897 37.5421 36.7699 37.3931 36.3901C37.1516 35.7741 33.3345 25.6816 33.3345 25.6816H27.0533C27.3553 25.9541 28.225 26.6885 28.0921 27.4822C27.9737 28.1929 25.8309 35.8009 25.7004 36.1768C25.5192 36.698 24.5891 37.2785 24.2147 37.5865H28.0921C27.7056 37.16 27.3915 36.7454 27.464 36.2716ZM29.4691 28.9984L31.2569 33.3339H28.1163L29.4691 28.9984Z" fill="#F8F9FA"/>
<path d="M49.3601 31.5798C48.1779 32.3521 46.9305 33.1584 45.6163 34.0002C46.2058 34.2806 46.6753 34.6328 46.7204 35.0877C46.8041 35.9421 45.0534 36.3551 43.471 36.1774C43.1546 36.1419 42.8437 36.0606 42.5474 35.9516C42.2188 36.1593 41.8871 36.3686 41.5504 36.5802C41.2082 36.7958 40.7927 37.0611 40.3184 37.3675V38.5939C40.6324 37.9898 41.3193 37.4489 41.8524 37.4212C42.0819 37.4094 42.8792 38.132 46.1647 37.9543C47.7592 37.8682 50.8394 36.2011 50.7911 34.2822C50.7621 33.1481 50.1581 32.2637 49.3601 31.5798ZM40.3176 34.5428V35.7921C40.6083 35.6018 40.8949 35.4146 41.176 35.2322C40.7339 34.9305 40.4206 34.6486 40.3176 34.5428ZM48.2367 30.7956C47.9307 30.6179 47.6207 30.4623 47.3235 30.3249C45.7774 29.6142 44.1588 29.4839 43.8205 28.5244C43.5822 27.8476 44.2554 27.2214 45.8982 27.2451C47.541 27.2688 49.0629 28.2283 49.4736 28.5718V25.5156C49.3528 25.6341 48.823 26.2303 48.3382 26.1316C47.4081 25.9421 45.8257 25.6949 44.0138 25.7052C41.9362 25.717 40.1484 27.2917 40.0881 29.2825C40.0035 32.0662 42.2744 32.8244 43.5548 33.2626C43.6869 33.3077 43.8375 33.3558 44.0009 33.4072C45.229 32.6238 46.2002 32.0204 46.7687 31.699C47.1504 31.4834 47.6505 31.1739 48.2367 30.7956Z" fill="#F8F9FA"/>
</svg>
