<svg width="52" height="979" viewBox="0 0 52 979" fill="none" xmlns="http://www.w3.org/2000/svg">
<path d="M45.62 467.836C45.62 471.225 45.062 474.346 43.946 477.198C42.83 480.05 41.28 482.53 39.296 484.638C37.2707 486.746 34.9147 488.379 32.228 489.536C29.5 490.693 26.524 491.272 23.3 491.272C20.076 491.272 17.1207 490.693 14.434 489.536C11.706 488.379 9.35 486.746 7.366 484.638C5.34066 482.53 3.77 480.05 2.654 477.198C1.538 474.346 0.979998 471.246 0.979998 467.898C0.979998 464.509 1.538 461.409 2.654 458.598C3.77 455.746 5.34066 453.266 7.366 451.158C9.35 449.05 11.706 447.417 14.434 446.26C17.1207 445.103 20.076 444.524 23.3 444.524C26.524 444.524 29.5 445.103 32.228 446.26C34.956 447.417 37.312 449.05 39.296 451.158C41.28 453.266 42.83 455.746 43.946 458.598C45.062 461.409 45.62 464.488 45.62 467.836ZM38.552 467.898C38.552 465.707 38.18 463.682 37.436 461.822C36.692 459.962 35.638 458.35 34.274 456.986C32.8687 455.622 31.2567 454.568 29.438 453.824C27.578 453.039 25.532 452.646 23.3 452.646C21.068 452.646 19.0427 453.039 17.224 453.824C15.364 454.568 13.752 455.622 12.388 456.986C10.9827 458.35 9.908 459.962 9.164 461.822C8.42 463.682 8.048 465.707 8.048 467.898C8.048 470.089 8.42 472.114 9.164 473.974C9.908 475.793 10.9827 477.405 12.388 478.81C13.752 480.174 15.364 481.249 17.224 482.034C19.0427 482.778 21.068 483.15 23.3 483.15C25.4907 483.15 27.516 482.778 29.376 482.034C31.236 481.249 32.8687 480.174 34.274 478.81C35.638 477.446 36.692 475.834 37.436 473.974C38.18 472.114 38.552 470.089 38.552 467.898ZM45.62 416.389C45.62 422.341 43.946 427.011 40.598 430.401C37.25 433.749 32.414 435.423 26.09 435.423H1.6L1.6 427.363H25.78C30.244 427.363 33.4887 426.412 35.514 424.511C37.5393 422.568 38.552 419.84 38.552 416.327C38.552 412.813 37.5393 410.106 35.514 408.205C33.4887 406.303 30.244 405.353 25.78 405.353H1.6L1.6 397.417H26.09C32.414 397.417 37.25 399.111 40.598 402.501C43.946 405.849 45.62 410.478 45.62 416.389ZM45 385.199H1.6L1.6 367.343C1.6 363.499 2.22 360.213 3.46 357.485C4.7 354.715 6.47733 352.587 8.792 351.099C11.1067 349.611 13.8553 348.867 17.038 348.867C20.2207 348.867 22.9693 349.611 25.284 351.099C27.5573 352.587 29.314 354.715 30.554 357.485C31.7527 360.213 32.352 363.499 32.352 367.343V380.735L28.694 377.139H45V385.199ZM45 356.803L29.252 367.777L29.252 359.159L45 348.123L45 356.803ZM29.562 377.139L25.718 380.735V367.715C25.718 364.16 24.9533 361.494 23.424 359.717C21.8947 357.898 19.766 356.989 17.038 356.989C14.2687 356.989 12.14 357.898 10.652 359.717C9.164 361.494 8.42 364.16 8.42 367.715L8.42 380.735L4.452 377.139H29.562ZM45 320.854H1.6L1.6 314.22L33.282 295.248V298.72L1.6 280.058L1.6 273.424L45 273.362V280.988L13.566 281.05V279.438L40.04 295.31V298.906L13.566 315.026V313.166H45V320.854ZM45 260.71H1.6L1.6 252.65H45V260.71ZM45.62 226.527C45.62 229.916 45.1447 233.161 44.194 236.261C43.202 239.361 41.9413 241.82 40.412 243.639L34.15 240.849C35.514 239.113 36.6507 236.963 37.56 234.401C38.4693 231.838 38.924 229.213 38.924 226.527C38.924 224.253 38.676 222.414 38.18 221.009C37.684 219.603 37.0227 218.57 36.196 217.909C35.328 217.247 34.3567 216.917 33.282 216.917C31.9593 216.917 30.9053 217.392 30.12 218.343C29.2933 219.293 28.6527 220.533 28.198 222.063C27.702 223.551 27.2473 225.225 26.834 227.085C26.4207 228.903 25.9453 230.743 25.408 232.603C24.8293 234.421 24.106 236.095 23.238 237.625C22.3287 239.113 21.13 240.332 19.642 241.283C18.154 242.233 16.2527 242.709 13.938 242.709C11.582 242.709 9.43267 242.089 7.49 240.849C5.506 239.567 3.93533 237.645 2.778 235.083C1.57933 232.479 0.979998 229.193 0.979998 225.225C0.979998 222.621 1.31066 220.037 1.972 217.475C2.63333 214.912 3.584 212.68 4.824 210.779L11.086 213.321C9.92866 215.263 9.08133 217.268 8.544 219.335C7.96533 221.401 7.676 223.385 7.676 225.287C7.676 227.519 7.94466 229.337 8.482 230.743C9.01933 232.107 9.722 233.119 10.59 233.781C11.458 234.401 12.45 234.711 13.566 234.711C14.8887 234.711 15.9633 234.256 16.79 233.347C17.5753 232.396 18.1953 231.177 18.65 229.689C19.1047 228.159 19.5593 226.465 20.014 224.605C20.4273 222.745 20.9027 220.905 21.44 219.087C21.9773 217.227 22.68 215.553 23.548 214.065C24.416 212.535 25.594 211.316 27.082 210.407C28.57 209.456 30.4507 208.981 32.724 208.981C35.0387 208.981 37.188 209.621 39.172 210.903C41.1147 212.143 42.6853 214.065 43.884 216.669C45.0413 219.273 45.62 222.559 45.62 226.527ZM45.62 186.604C45.62 189.994 45.1447 193.238 44.194 196.338C43.202 199.438 41.9413 201.898 40.412 203.716L34.15 200.926C35.514 199.19 36.6507 197.041 37.56 194.478C38.4693 191.916 38.924 189.291 38.924 186.604C38.924 184.331 38.676 182.492 38.18 181.086C37.684 179.681 37.0227 178.648 36.196 177.986C35.328 177.325 34.3567 176.994 33.282 176.994C31.9593 176.994 30.9053 177.47 30.12 178.42C29.2933 179.371 28.6527 180.611 28.198 182.14C27.702 183.628 27.2473 185.302 26.834 187.162C26.4207 188.981 25.9453 190.82 25.408 192.68C24.8293 194.499 24.106 196.173 23.238 197.702C22.3287 199.19 21.13 200.41 19.642 201.36C18.154 202.311 16.2527 202.786 13.938 202.786C11.582 202.786 9.43267 202.166 7.49 200.926C5.506 199.645 3.93533 197.723 2.778 195.16C1.57933 192.556 0.979998 189.27 0.979998 185.302C0.979998 182.698 1.31066 180.115 1.972 177.552C2.63333 174.99 3.584 172.758 4.824 170.856L11.086 173.398C9.92866 175.341 9.08133 177.346 8.544 179.412C7.96533 181.479 7.676 183.463 7.676 185.364C7.676 187.596 7.94466 189.415 8.482 190.82C9.01933 192.184 9.722 193.197 10.59 193.858C11.458 194.478 12.45 194.788 13.566 194.788C14.8887 194.788 15.9633 194.334 16.79 193.424C17.5753 192.474 18.1953 191.254 18.65 189.766C19.1047 188.237 19.5593 186.542 20.014 184.682C20.4273 182.822 20.9027 180.983 21.44 179.164C21.9773 177.304 22.68 175.63 23.548 174.142C24.416 172.613 25.594 171.394 27.082 170.484C28.57 169.534 30.4507 169.058 32.724 169.058C35.0387 169.058 37.188 169.699 39.172 170.98C41.1147 172.22 42.6853 174.142 43.884 176.746C45.0413 179.35 45.62 182.636 45.62 186.604ZM45 160.136H1.6L1.6 152.076H45V160.136ZM45.62 119.071C45.62 122.461 45.062 125.581 43.946 128.433C42.83 131.285 41.28 133.765 39.296 135.873C37.2707 137.981 34.9147 139.614 32.228 140.771C29.5 141.929 26.524 142.507 23.3 142.507C20.076 142.507 17.1207 141.929 14.434 140.771C11.706 139.614 9.35 137.981 7.366 135.873C5.34066 133.765 3.77 131.285 2.654 128.433C1.538 125.581 0.979998 122.481 0.979998 119.133C0.979998 115.744 1.538 112.644 2.654 109.833C3.77 106.981 5.34066 104.501 7.366 102.393C9.35 100.285 11.706 98.6528 14.434 97.4955C17.1207 96.3381 20.076 95.7595 23.3 95.7595C26.524 95.7595 29.5 96.3381 32.228 97.4955C34.956 98.6528 37.312 100.285 39.296 102.393C41.28 104.501 42.83 106.981 43.946 109.833C45.062 112.644 45.62 115.723 45.62 119.071ZM38.552 119.133C38.552 116.943 38.18 114.917 37.436 113.057C36.692 111.197 35.638 109.585 34.274 108.221C32.8687 106.857 31.2567 105.803 29.438 105.059C27.578 104.274 25.532 103.881 23.3 103.881C21.068 103.881 19.0427 104.274 17.224 105.059C15.364 105.803 13.752 106.857 12.388 108.221C10.9827 109.585 9.908 111.197 9.164 113.057C8.42 114.917 8.048 116.943 8.048 119.133C8.048 121.324 8.42 123.349 9.164 125.209C9.908 127.028 10.9827 128.64 12.388 130.045C13.752 131.409 15.364 132.484 17.224 133.269C19.0427 134.013 21.068 134.385 23.3 134.385C25.4907 134.385 27.516 134.013 29.376 133.269C31.236 132.484 32.8687 131.409 34.274 130.045C35.638 128.681 36.692 127.069 37.436 125.209C38.18 123.349 38.552 121.324 38.552 119.133ZM45 86.2861H1.6L1.6 79.6521L35.018 52.4341V55.7201H1.6L1.6 47.7221H45V54.3561L11.582 81.5741V78.2881H45V86.2861Z" fill="#F8F9FA"/>
<rect x="22" y="529" width="2" height="450" fill="#F8F9FA"/>
</svg>
