<svg width="39" height="44" viewBox="0 0 39 44" fill="none" xmlns="http://www.w3.org/2000/svg">
<path d="M29.2267 14.6985C27.3031 14.6985 25.6277 13.9826 24.2005 12.551C22.7733 11.1193 22.0597 9.38539 22.0597 7.34924C22.0597 5.31309 22.7578 3.57918 24.1539 2.14751C25.5501 0.715835 27.2411 0 29.2267 0C31.2124 0 32.9033 0.715835 34.2995 2.14751C35.6957 3.57918 36.3938 5.31309 36.3938 7.34924C36.3938 9.38539 35.6957 11.1193 34.2995 12.551C32.9033 13.9826 31.2124 14.6985 29.2267 14.6985ZM23.3628 21.7614C23.3628 19.7252 22.6647 17.9913 21.2685 16.5597C19.8723 15.128 18.1814 14.4121 16.1957 14.4121C14.21 14.4121 12.5346 15.128 11.1695 16.5597C9.8043 17.9913 9.12172 19.7252 9.12172 21.7614V34.9328H23.3628V21.7614ZM16.1957 13.3623C17.685 13.3623 18.9415 12.8373 19.9654 11.7874C20.9893 10.7375 21.5012 9.48084 21.5012 8.01735C21.5012 6.55387 20.9893 5.29718 19.9654 4.24729C18.9415 3.1974 17.685 2.67245 16.1957 2.67245C14.7685 2.67245 13.543 3.1974 12.5191 4.24729C11.4952 5.29718 10.9833 6.55387 10.9833 8.01735C10.9833 9.48084 11.4952 10.7375 12.5191 11.7874C13.543 12.8373 14.7685 13.3623 16.1957 13.3623ZM39 25.961C39 23.2249 38.0382 20.8706 36.1146 18.898C34.1909 16.9255 31.895 15.9393 29.2267 15.9393C26.5585 15.9393 24.2625 16.9255 22.3389 18.898C20.4153 20.8706 19.4535 23.2249 19.4535 25.961C19.4535 26.0882 19.469 26.2155 19.5 26.3427C19.531 26.47 19.5465 26.5654 19.5465 26.6291H19.4535V44H39V25.961ZM5.86396 13.5531C4.2506 13.5531 2.86993 14.1417 1.72196 15.3189C0.573986 16.496 0 17.9118 0 19.5662V30.3514H11.7279V19.9479H11.6348V19.5662C11.6348 17.9118 11.0764 16.496 9.95943 15.3189C8.84248 14.1417 7.47733 13.5531 5.86396 13.5531ZM5.86396 12.7896C7.04296 12.7896 8.05131 12.3601 8.88902 11.5011C9.72673 10.6421 10.1456 9.6081 10.1456 8.39913C10.1456 7.19017 9.72673 6.15618 8.88902 5.29718C8.05131 4.43818 7.04296 4.00868 5.86396 4.00868C4.62291 4.00868 3.58353 4.43818 2.74582 5.29718C1.90811 6.15618 1.48926 7.19017 1.48926 8.39913C1.48926 9.6081 1.92363 10.6421 2.79236 11.5011C3.6611 12.3601 4.68496 12.7896 5.86396 12.7896Z" fill="#060B18"/>
</svg>
