<svg width="17" height="17" viewBox="0 0 17 17" fill="none" xmlns="http://www.w3.org/2000/svg">
<path fill-rule="evenodd" clip-rule="evenodd" d="M12.2292 7.02919C12.2292 7.67267 12.0954 8.30985 11.8354 8.90434C11.5754 9.49884 11.1943 10.039 10.7138 10.494C10.2334 10.949 9.66306 11.31 9.03535 11.5562C8.40765 11.8025 7.73487 11.9292 7.05545 11.9292C6.37602 11.9292 5.70325 11.8025 5.07554 11.5562C4.44783 11.31 3.87748 10.949 3.39706 10.494C2.91663 10.039 2.53554 9.49884 2.27553 8.90434C2.01553 8.30985 1.8817 7.67267 1.8817 7.02919C1.8817 5.72963 2.42679 4.4833 3.39706 3.56437C4.36732 2.64544 5.68328 2.12919 7.05545 2.12919C8.42761 2.12919 9.74357 2.64544 10.7138 3.56437C11.6841 4.4833 12.2292 5.72963 12.2292 7.02919ZM11.2077 11.9516C9.87945 12.9566 8.19524 13.4418 6.50102 13.3075C4.8068 13.1733 3.23117 12.4297 2.09773 11.2295C0.964289 10.0294 0.359077 8.46375 0.406387 6.85418C0.453698 5.24462 1.14994 3.7133 2.35212 2.57472C3.55431 1.43615 5.17117 0.776742 6.87066 0.731934C8.57014 0.687127 10.2232 1.26032 11.4904 2.33379C12.7576 3.40726 13.5428 4.89952 13.6845 6.5041C13.8263 8.10868 13.314 9.70377 12.2528 10.9618L16.448 14.9336C16.5167 14.9987 16.5712 15.0759 16.6084 15.161C16.6456 15.246 16.6648 15.3372 16.6648 15.4292C16.6648 15.5212 16.6456 15.6124 16.6084 15.6974C16.5712 15.7824 16.5167 15.8597 16.448 15.9248C16.3793 15.9899 16.2977 16.0415 16.2079 16.0767C16.1181 16.1119 16.0219 16.1301 15.9247 16.1301C15.8275 16.1301 15.7313 16.1119 15.6415 16.0767C15.5517 16.0415 15.4702 15.9899 15.4014 15.9248L11.2092 11.9516H11.2077Z" fill="black"/>
</svg>
